<svg xmlns="http://www.w3.org/2000/svg" width="900" height="420" viewBox="0 0 900 420"><style>
text{font-family:-apple-system,BlinkMacSystemFont,'Segoe UI',Roboto,'Noto Sans CJK JP','Noto Sans JP',Meiryo,Arial,sans-serif;font-size:16px;fill:#111}
.caption{font-size:20px;font-weight:600}
.state{fill:#fff;stroke:#444;stroke-width:1.5}
.msg{stroke:#444;stroke-width:1.5;fill:none;marker-end:url(#arrow)}
</style>
<defs><marker id="arrow" markerWidth="10" markerHeight="7" refX="10" refY="3.5" orient="auto">
<polygon points="0 0, 10 3.5, 0 7" fill="#444"/></marker></defs>
<text x="24" y="30" class="caption">NodeVision Edit : ジョブ状態遷移</text><circle cx="90" cy="180" r="10" fill="#444"/><circle cx="740" cy="100" r="10" fill="#444"/><circle cx="740" cy="180" r="10" fill="#444"/><circle cx="740" cy="260" r="10" fill="#444"/><rect x="70.0" y="155.0" width="140" height="50" rx="8" ry="8" class="state" /><text x="140" y="186" text-anchor="middle">queued</text><rect x="290.0" y="155.0" width="140" height="50" rx="8" ry="8" class="state" /><text x="360" y="186" text-anchor="middle">running</text><rect x="570.0" y="75.0" width="140" height="50" rx="8" ry="8" class="state" /><text x="640" y="106" text-anchor="middle">completed</text><rect x="570.0" y="155.0" width="140" height="50" rx="8" ry="8" class="state" /><text x="640" y="186" text-anchor="middle">failed</text><rect x="570.0" y="235.0" width="140" height="50" rx="8" ry="8" class="state" /><text x="640" y="266" text-anchor="middle">canceled</text><line x1="100" y1="180" x2="70" y2="180" class="msg" /><line x1="210" y1="180" x2="290" y2="180" class="msg" /><text x="250.0" y="172.0" text-anchor="middle">engine:run</text><line x1="430" y1="180" x2="560" y2="100" class="msg" /><text x="495.0" y="132.0" text-anchor="middle">ffmpeg exit=0</text><line x1="430" y1="180" x2="560" y2="180" class="msg" /><text x="495.0" y="172.0" text-anchor="middle">ffmpeg exit!=0</text><line x1="430" y1="180" x2="560" y2="260" class="msg" /><text x="495.0" y="212.0" text-anchor="middle">engine:cancel / SIGINT→3s→SIGKILL</text></svg>