<?xml version="1.0" encoding="UTF-8" standalone="no"?>
<!DOCTYPE svg PUBLIC "-//W3C//DTD SVG 1.1//EN" "http://www.w3.org/Graphics/SVG/1.1/DTD/svg11.dtd">
<svg width="100%" height="100%" viewBox="0 0 48 48" version="1.1" xmlns="http://www.w3.org/2000/svg" xmlns:xlink="http://www.w3.org/1999/xlink" xml:space="preserve" xmlns:serif="http://www.serif.com/" style="fill-rule:evenodd;clip-rule:evenodd;stroke-linejoin:round;stroke-miterlimit:2;">
    <g transform="matrix(0.000494,-2,2,0.000494,-0.00593,47.994069)">
        <rect x="0" y="0" width="24" height="24" style="fill:none;fill-rule:nonzero;"/>
    </g>
    <g transform="matrix(0,-2,2,0,0.031769,48.038759)">
        <path d="M15,21L17,21L17,19L15,19L15,21ZM19,9L21,9L21,7L19,7L19,9ZM3,5L3,19C3,20.1 3.9,21 5,21L9,21L9,19L5,19L5,5L9,5L9,3L5,3C3.9,3 3,3.9 3,5ZM19,3L19,5L21,5C21,3.9 20.1,3 19,3ZM11,23L13,23L13,1L11,1L11,23ZM19,17L21,17L21,15L19,15L19,17ZM15,5L17,5L17,3L15,3L15,5ZM19,13L21,13L21,11L19,11L19,13ZM19,21C20.1,21 21,20.1 21,19L19,19L19,21Z" style="fill:rgb(75,75,75);fill-rule:nonzero;"/>
    </g>
</svg>
